<svg width="112.000000" height="111.000000" viewBox="0 0 112 111" fill="none" xmlns="http://www.w3.org/2000/svg" xmlns:xlink="http://www.w3.org/1999/xlink">
	<desc>
			Created with Pixso.
	</desc>
	<defs/>
	<path id="D" d="M60.98 5.7C60.98 9.56 58.71 11.89 54.94 11.89L50.55 11.89L50.55 -0.48L54.98 -0.48C58.71 -0.48 60.98 1.84 60.98 5.7ZM53.17 1.77L53.17 9.65L54.83 9.65C57.15 9.65 58.38 8.45 58.38 5.7C58.38 2.95 57.15 1.77 54.83 1.77L53.17 1.77Z" fill="#000000" fill-opacity="1.000000" fill-rule="evenodd"/>
	<path id="E" d="M77.21 17.52L69.57 14.13L74.6 2.83L82.21 6.22L81.34 8.19L76.11 5.86L74.92 8.55L79.75 10.7L78.87 12.67L74.04 10.52L72.84 13.22L78.08 15.56L77.21 17.52Z" fill="#000000" fill-opacity="1.000000" fill-rule="evenodd"/>
	<path id="L" d="M90.59 29.63L85.3 23.75L94.49 15.47L96.24 17.42L88.65 24.25L92.2 28.19L90.59 29.63Z" fill="#000000" fill-opacity="1.000000" fill-rule="evenodd"/>
	<path id="I" d="M108.92 39.96L108.11 37.47L96.35 41.29L97.16 43.78L108.92 39.96Z" fill="#000000" fill-opacity="1.000000" fill-rule="evenodd"/>
	<path id="C" d="M110.81 61.55C110.51 64.4 108.65 66.38 105.78 66.42L106.05 63.79C107.42 63.74 108.36 62.79 108.51 61.37C108.71 59.47 107.38 58.07 104.82 57.8C102.19 57.52 100.67 58.64 100.47 60.51C100.33 61.9 100.98 63.01 102.26 63.39L101.98 66.02C99.74 65.5 97.85 63.38 98.18 60.23C98.52 56.94 101.09 54.74 105.09 55.16C109.12 55.59 111.15 58.31 110.81 61.55Z" fill="#000000" fill-opacity="1.000000" fill-rule="evenodd"/>
	<path id="I" d="M102.51 84.81L103.82 82.55L93.11 76.36L91.8 78.63L102.51 84.81Z" fill="#000000" fill-opacity="1.000000" fill-rule="evenodd"/>
	<path id="O" d="M88 100.47C85.35 102.39 81.96 102 79.58 98.73C77.2 95.46 77.88 92.12 80.53 90.19C83.2 88.25 86.58 88.67 88.94 91.92C91.32 95.2 90.66 98.53 88 100.47ZM81.89 92.06C80.36 93.17 80.18 95.05 81.72 97.17C83.26 99.29 85.11 99.71 86.64 98.6C88.18 97.48 88.34 95.6 86.8 93.48C85.26 91.36 83.43 90.94 81.89 92.06Z" fill="#000000" fill-opacity="1.000000" fill-rule="evenodd"/>
	<path id="S" d="M61.25 107.19L63.7 106.67C64 107.6 64.87 108 66.09 107.74C67.34 107.47 67.91 106.75 67.75 105.97C67.58 105.1 66.61 104.9 65.51 104.88L64.37 104.85C62.17 104.83 60.42 104.08 59.99 102.07C59.52 99.85 60.96 98.07 63.91 97.44C66.85 96.82 69.01 97.77 69.63 100.38L67.15 100.9C66.81 99.71 65.73 99.3 64.4 99.58C63.1 99.86 62.39 100.64 62.57 101.52C62.75 102.34 63.56 102.56 64.95 102.6L66.33 102.65C68.48 102.71 69.96 103.46 70.33 105.25C70.81 107.44 69.18 109.32 66.53 109.88C63.83 110.45 61.74 109.34 61.25 107.19Z" fill="#000000" fill-opacity="1.000000" fill-rule="evenodd"/>
	<path id="E" d="M41.79 96.56L49.97 98.3L47.39 110.39L39.25 108.66L39.69 106.56L45.28 107.74L45.9 104.86L40.73 103.76L41.17 101.65L46.35 102.75L46.96 99.86L41.35 98.67L41.79 96.56Z" fill="#000000" fill-opacity="1.000000" fill-rule="evenodd"/>
	<path id="Text" d="" fill="#000000" fill-opacity="1.000000" fill-rule="evenodd"/>
	<path id="F" d="M18.28 77.57L19.59 79.83L8.88 86.01L4.79 78.93L6.65 77.85L9.44 82.67L11.99 81.2L9.47 76.85L11.34 75.77L13.85 80.12L18.28 77.57Z" fill="#000000" fill-opacity="1.000000" fill-rule="evenodd"/>
	<path id="O" d="M-0.2 60.82C-0.54 57.56 1.49 54.82 5.52 54.4C9.54 53.97 12.09 56.23 12.44 59.49C12.78 62.77 10.73 65.49 6.73 65.91C2.7 66.33 0.15 64.1 -0.2 60.82ZM10.14 59.73C9.94 57.85 8.4 56.76 5.79 57.03C3.18 57.3 1.9 58.69 2.1 60.58C2.3 62.47 3.84 63.55 6.45 63.27C9.05 63 10.34 61.62 10.14 59.73Z" fill="#000000" fill-opacity="1.000000" fill-rule="evenodd"/>
	<path id="O" d="M2.31 37.74C3.33 34.62 6.3 32.95 10.14 34.2C13.99 35.45 15.41 38.55 14.39 41.67C13.38 44.8 10.4 46.45 6.57 45.21C2.72 43.96 1.29 40.87 2.31 37.74ZM12.2 40.95C12.78 39.15 11.82 37.52 9.33 36.72C6.83 35.9 5.1 36.65 4.51 38.45C3.92 40.26 4.89 41.88 7.39 42.69C9.88 43.5 11.61 42.76 12.2 40.95Z" fill="#000000" fill-opacity="1.000000" fill-rule="evenodd"/>
	<path id="D" d="M22.34 17.88C25.22 20.46 25.42 23.72 22.9 26.52L19.97 29.77L10.78 21.5L13.74 18.22C16.23 15.44 19.48 15.3 22.34 17.88ZM14.19 21.06L20.05 26.33L21.16 25.1C22.72 23.37 22.65 21.66 20.6 19.82C18.56 17.98 16.86 18.1 15.31 19.82L14.19 21.06Z" fill="#000000" fill-opacity="1.000000" fill-rule="evenodd"/>
	<path id="S" d="M38.76 5.54L36.47 6.56C35.99 5.71 35.05 5.5 33.91 6.01C32.74 6.53 32.33 7.35 32.66 8.08C33 8.9 33.99 8.9 35.07 8.68L36.19 8.47C38.35 8.04 40.21 8.41 41.05 10.29C41.97 12.36 40.94 14.4 38.18 15.63C35.44 16.85 33.13 16.36 31.98 13.95L34.29 12.92C34.87 14.01 36.02 14.19 37.26 13.63C38.47 13.09 39.01 12.19 38.65 11.36C38.3 10.6 37.46 10.55 36.09 10.8L34.73 11.04C32.62 11.43 31.02 11 30.28 9.33C29.36 7.28 30.56 5.11 33.04 4C35.55 2.88 37.83 3.54 38.76 5.54Z" fill="#000000" fill-opacity="1.000000" fill-rule="evenodd"/>
</svg>
