<svg width="45.000000" height="45.000000" viewBox="0 0 45 45" fill="none" xmlns="http://www.w3.org/2000/svg" xmlns:xlink="http://www.w3.org/1999/xlink">
	<desc>
			Created with Pixso.
	</desc>
	<defs>
		<clipPath id="clip3_2045">
			<rect id="icons8-instagram 1" width="24.000000" height="24.000000" transform="translate(10.000000 11.000000)" fill="white" fill-opacity="0"/>
		</clipPath>
	</defs>
	<circle id="Ellipse 2" cx="22.500000" cy="22.500000" r="22.500000" fill="#101A24" fill-opacity="0"/>
	<circle id="Ellipse 2" cx="22.500000" cy="22.500000" r="22.000000" stroke="#101A24" stroke-opacity="1.000000" stroke-width="1.000000"/>
	<rect id="icons8-instagram 1" width="24.000000" height="24.000000" transform="translate(10.000000 11.000000)" fill="#FFFFFF" fill-opacity="0"/>
	<g clip-path="url(#clip3_2045)">
		<path id="Vector" d="M18 14C15.24 14 13 16.24 13 19L13 27C13 29.75 15.24 32 18 32L26 32C28.75 32 31 29.75 31 27L31 19C31 16.24 28.75 14 26 14L18 14ZM18 16L26 16C27.65 16 29 17.34 29 19L29 27C29 28.65 27.65 30 26 30L18 30C16.34 30 15 28.65 15 27L15 19C15 17.34 16.34 16 18 16ZM27 17C26.73 17 26.48 17.1 26.29 17.29C26.1 17.48 26 17.73 26 18C26 18.26 26.1 18.51 26.29 18.7C26.48 18.89 26.73 19 27 19C27.26 19 27.51 18.89 27.7 18.7C27.89 18.51 28 18.26 28 18C28 17.73 27.89 17.48 27.7 17.29C27.51 17.1 27.26 17 27 17ZM22 18C19.24 18 17 20.24 17 23C17 25.75 19.24 28 22 28C24.75 28 27 25.75 27 23C27 20.24 24.75 18 22 18ZM22 20C23.65 20 25 21.34 25 23C25 24.65 23.65 26 22 26C20.34 26 19 24.65 19 23C19 21.34 20.34 20 22 20Z" fill="#000000" fill-opacity="1.000000" fill-rule="nonzero"/>
	</g>
</svg>
