<svg width="198.000000" height="55.000000" viewBox="0 0 198 55" fill="none" xmlns="http://www.w3.org/2000/svg" xmlns:xlink="http://www.w3.org/1999/xlink">
	<desc>
			Created with Pixso.
	</desc>
	<defs>
		<clipPath id="clip5_183">
			<rect id="logo 1" width="198.000000" height="55.000000" fill="white" fill-opacity="0"/>
		</clipPath>
		<linearGradient id="paint_linear_5_185_0" x1="7.428591" y1="20.214325" x2="22.428579" y2="37.714329" gradientUnits="userSpaceOnUse">
			<stop stop-color="#EA6D27"/>
			<stop offset="1.000000" stop-color="#EAA827"/>
		</linearGradient>
		<linearGradient id="paint_linear_5_186_0" x1="6.428568" y1="30.714407" x2="35.000000" y2="46.428612" gradientUnits="userSpaceOnUse">
			<stop stop-color="#FF9400"/>
			<stop offset="1.000000" stop-color="#EA6D27"/>
		</linearGradient>
	</defs>
	<rect id="logo 1" width="198.000000" height="55.000000" fill="#FFFFFF" fill-opacity="0"/>
	<g clip-path="url(#clip5_183)">
		<path id="Vector" d="M60.48 47L60.48 32.27L64.44 32.27L64.44 34.84L64.6 34.84C64.86 33.92 65.31 33.23 65.95 32.77C66.58 32.29 67.31 32.06 68.13 32.06C68.34 32.06 68.56 32.07 68.8 32.1C69.03 32.12 69.24 32.16 69.42 32.2L69.42 35.82C69.23 35.77 68.96 35.72 68.62 35.67C68.28 35.63 67.97 35.6 67.69 35.6C67.09 35.6 66.55 35.74 66.08 36C65.61 36.25 65.24 36.61 64.97 37.07C64.7 37.53 64.57 38.06 64.57 38.66L64.57 47L60.48 47ZM77.56 47.28C76.04 47.28 74.74 46.98 73.64 46.36C72.56 45.74 71.72 44.87 71.13 43.74C70.54 42.6 70.25 41.25 70.25 39.7C70.25 38.18 70.54 36.85 71.13 35.71C71.72 34.57 72.55 33.67 73.62 33.03C74.69 32.4 75.95 32.08 77.39 32.08C78.36 32.08 79.27 32.23 80.11 32.55C80.95 32.85 81.69 33.32 82.31 33.94C82.94 34.56 83.44 35.34 83.79 36.28C84.14 37.21 84.32 38.3 84.32 39.55L84.32 40.68L71.88 40.68L71.88 38.15L80.47 38.15C80.47 37.56 80.34 37.04 80.09 36.58C79.83 36.13 79.48 35.77 79.02 35.52C78.58 35.26 78.05 35.13 77.46 35.13C76.84 35.13 76.29 35.27 75.81 35.56C75.34 35.84 74.97 36.22 74.7 36.7C74.43 37.17 74.29 37.7 74.29 38.28L74.29 40.69C74.29 41.41 74.42 42.04 74.69 42.57C74.96 43.11 75.35 43.51 75.85 43.8C76.35 44.09 76.94 44.23 77.62 44.23C78.08 44.23 78.49 44.17 78.87 44.04C79.25 43.91 79.57 43.72 79.84 43.47C80.11 43.21 80.31 42.9 80.45 42.53L84.23 42.78C84.04 43.68 83.64 44.48 83.05 45.15C82.46 45.83 81.7 46.35 80.77 46.73C79.84 47.1 78.77 47.28 77.56 47.28ZM99.23 36.47L95.5 36.7C95.43 36.38 95.29 36.09 95.08 35.83C94.87 35.57 94.59 35.36 94.25 35.21C93.91 35.05 93.5 34.97 93.03 34.97C92.4 34.97 91.86 35.11 91.43 35.37C91 35.64 90.78 35.99 90.78 36.43C90.78 36.78 90.92 37.08 91.2 37.32C91.48 37.56 91.96 37.76 92.65 37.91L95.31 38.44C96.74 38.74 97.81 39.21 98.52 39.86C99.22 40.51 99.57 41.37 99.57 42.43C99.57 43.4 99.29 44.24 98.72 44.97C98.15 45.7 97.38 46.27 96.4 46.68C95.42 47.08 94.29 47.28 93.01 47.28C91.06 47.28 89.51 46.88 88.35 46.07C87.2 45.25 86.53 44.13 86.33 42.73L90.35 42.52C90.47 43.11 90.76 43.57 91.23 43.88C91.7 44.19 92.29 44.34 93.02 44.34C93.74 44.34 94.31 44.2 94.75 43.93C95.19 43.65 95.41 43.28 95.42 42.84C95.41 42.47 95.26 42.17 94.95 41.93C94.64 41.69 94.17 41.5 93.53 41.38L90.98 40.87C89.54 40.58 88.47 40.08 87.77 39.37C87.07 38.66 86.72 37.76 86.72 36.66C86.72 35.71 86.98 34.9 87.49 34.21C88.01 33.53 88.73 33 89.67 32.63C90.61 32.26 91.7 32.08 92.96 32.08C94.82 32.08 96.29 32.47 97.36 33.26C98.43 34.04 99.06 35.11 99.23 36.47ZM109.98 32.27L109.98 35.34L101.11 35.34L101.11 32.27L109.98 32.27ZM103.12 28.74L107.21 28.74L107.21 42.47C107.21 42.85 107.26 43.14 107.38 43.35C107.49 43.56 107.65 43.7 107.86 43.78C108.07 43.87 108.31 43.91 108.59 43.91C108.78 43.91 108.97 43.89 109.16 43.86C109.35 43.82 109.5 43.79 109.6 43.77L110.24 46.81C110.04 46.88 109.75 46.95 109.38 47.03C109.01 47.12 108.56 47.18 108.03 47.2C107.05 47.23 106.18 47.1 105.44 46.8C104.71 46.5 104.13 46.04 103.72 45.4C103.32 44.77 103.11 43.97 103.12 43.01L103.12 28.74ZM116.84 47.27C115.9 47.27 115.06 47.11 114.32 46.78C113.59 46.45 113.01 45.96 112.58 45.32C112.16 44.67 111.95 43.85 111.95 42.88C111.95 42.06 112.1 41.38 112.4 40.82C112.7 40.26 113.11 39.82 113.62 39.48C114.14 39.14 114.73 38.88 115.39 38.71C116.05 38.54 116.75 38.42 117.48 38.35C118.34 38.26 119.03 38.17 119.55 38.1C120.07 38.01 120.45 37.89 120.69 37.73C120.93 37.57 121.05 37.34 121.05 37.02L121.05 36.97C121.05 36.36 120.85 35.89 120.47 35.56C120.09 35.22 119.56 35.06 118.86 35.06C118.12 35.06 117.54 35.22 117.1 35.55C116.67 35.87 116.38 36.27 116.24 36.75L112.46 36.45C112.66 35.55 113.03 34.78 113.6 34.13C114.16 33.47 114.88 32.96 115.77 32.61C116.67 32.25 117.7 32.08 118.88 32.08C119.7 32.08 120.48 32.17 121.23 32.36C121.98 32.56 122.65 32.85 123.23 33.26C123.82 33.66 124.28 34.18 124.62 34.81C124.96 35.43 125.13 36.19 125.13 37.06L125.13 47L121.26 47L121.26 44.95L121.14 44.95C120.91 45.41 120.59 45.82 120.19 46.17C119.8 46.52 119.32 46.79 118.76 46.99C118.21 47.18 117.57 47.27 116.84 47.27ZM118.01 44.45C118.61 44.45 119.14 44.34 119.6 44.1C120.06 43.86 120.42 43.53 120.68 43.12C120.94 42.71 121.07 42.25 121.07 41.73L121.07 40.17C120.95 40.25 120.77 40.33 120.55 40.4C120.33 40.46 120.08 40.52 119.81 40.58C119.53 40.63 119.26 40.68 118.98 40.72C118.71 40.76 118.46 40.8 118.24 40.83C117.76 40.9 117.34 41.01 116.98 41.17C116.62 41.32 116.34 41.53 116.15 41.79C115.95 42.04 115.85 42.36 115.85 42.75C115.85 43.3 116.05 43.73 116.45 44.02C116.86 44.31 117.38 44.45 118.01 44.45ZM137.74 40.72L137.74 32.27L141.83 32.27L141.83 47L137.91 47L137.91 44.32L137.75 44.32C137.42 45.18 136.87 45.88 136.09 46.4C135.33 46.92 134.39 47.19 133.28 47.19C132.3 47.19 131.43 46.96 130.69 46.52C129.94 46.07 129.35 45.43 128.93 44.61C128.52 43.78 128.31 42.8 128.3 41.64L128.3 32.27L132.38 32.27L132.38 40.92C132.39 41.79 132.62 42.47 133.08 42.98C133.54 43.48 134.16 43.74 134.93 43.74C135.43 43.74 135.89 43.62 136.31 43.4C136.74 43.17 137.09 42.83 137.35 42.38C137.62 41.94 137.75 41.38 137.74 40.72ZM145.09 47L145.09 32.27L149.05 32.27L149.05 34.84L149.21 34.84C149.48 33.92 149.93 33.23 150.56 32.77C151.19 32.29 151.92 32.06 152.75 32.06C152.95 32.06 153.17 32.07 153.41 32.1C153.64 32.12 153.85 32.16 154.03 32.2L154.03 35.82C153.84 35.77 153.57 35.72 153.24 35.67C152.9 35.63 152.59 35.6 152.31 35.6C151.7 35.6 151.17 35.74 150.69 36C150.23 36.25 149.86 36.61 149.58 37.07C149.31 37.53 149.18 38.06 149.18 38.66L149.18 47L145.09 47ZM159.92 47.27C158.98 47.27 158.14 47.11 157.41 46.78C156.67 46.45 156.09 45.96 155.66 45.32C155.24 44.67 155.03 43.85 155.03 42.88C155.03 42.06 155.18 41.38 155.48 40.82C155.78 40.26 156.19 39.82 156.71 39.48C157.23 39.14 157.81 38.88 158.47 38.71C159.14 38.54 159.83 38.42 160.56 38.35C161.42 38.26 162.11 38.17 162.63 38.1C163.16 38.01 163.54 37.89 163.77 37.73C164.01 37.57 164.13 37.34 164.13 37.02L164.13 36.97C164.13 36.36 163.94 35.89 163.55 35.56C163.18 35.22 162.64 35.06 161.94 35.06C161.21 35.06 160.62 35.22 160.19 35.55C159.75 35.87 159.47 36.27 159.33 36.75L155.55 36.45C155.74 35.55 156.12 34.78 156.68 34.13C157.24 33.47 157.97 32.96 158.86 32.61C159.75 32.25 160.79 32.08 161.96 32.08C162.78 32.08 163.56 32.17 164.31 32.36C165.07 32.56 165.73 32.85 166.32 33.26C166.9 33.66 167.37 34.18 167.71 34.81C168.04 35.43 168.21 36.19 168.21 37.06L168.21 47L164.34 47L164.34 44.95L164.23 44.95C163.99 45.41 163.67 45.82 163.28 46.17C162.88 46.52 162.4 46.79 161.85 46.99C161.29 47.18 160.65 47.27 159.92 47.27ZM161.09 44.45C161.69 44.45 162.22 44.34 162.68 44.1C163.14 43.86 163.5 43.53 163.77 43.12C164.03 42.71 164.16 42.25 164.16 41.73L164.16 40.17C164.03 40.25 163.85 40.33 163.63 40.4C163.41 40.46 163.17 40.52 162.89 40.58C162.62 40.63 162.34 40.68 162.07 40.72C161.79 40.76 161.54 40.8 161.32 40.83C160.84 40.9 160.42 41.01 160.06 41.17C159.71 41.32 159.43 41.53 159.23 41.79C159.03 42.04 158.93 42.36 158.93 42.75C158.93 43.3 159.13 43.73 159.54 44.02C159.95 44.31 160.46 44.45 161.09 44.45ZM175.47 38.48L175.47 47L171.38 47L171.38 32.27L175.28 32.27L175.28 34.87L175.45 34.87C175.77 34.01 176.32 33.33 177.09 32.83C177.85 32.33 178.79 32.08 179.88 32.08C180.9 32.08 181.79 32.3 182.55 32.75C183.31 33.19 183.91 33.83 184.33 34.66C184.75 35.49 184.96 36.47 184.96 37.62L184.96 47L180.88 47L180.88 38.35C180.88 37.45 180.65 36.74 180.18 36.24C179.72 35.73 179.08 35.47 178.26 35.47C177.71 35.47 177.22 35.59 176.8 35.82C176.38 36.06 176.06 36.41 175.82 36.86C175.59 37.31 175.47 37.85 175.47 38.48ZM196.01 32.27L196.01 35.34L187.14 35.34L187.14 32.27L196.01 32.27ZM189.16 28.74L193.24 28.74L193.24 42.47C193.24 42.85 193.3 43.14 193.41 43.35C193.53 43.56 193.69 43.7 193.89 43.78C194.1 43.87 194.35 43.91 194.62 43.91C194.81 43.91 195.01 43.89 195.2 43.86C195.39 43.82 195.54 43.79 195.64 43.77L196.28 46.81C196.08 46.88 195.79 46.95 195.42 47.03C195.05 47.12 194.6 47.18 194.07 47.2C193.08 47.23 192.22 47.1 191.48 46.8C190.74 46.5 190.17 46.04 189.76 45.4C189.35 44.77 189.15 43.97 189.16 43.01L189.16 28.74Z" fill="#101A24" fill-opacity="1.000000" fill-rule="nonzero"/>
		<path id="Vector" d="M15.28 38.07C9.96 38.07 5.64 33.75 5.64 28.42C5.64 23.1 9.96 18.78 15.28 18.78C20.61 18.78 24.92 23.1 24.92 28.42C24.92 33.75 20.61 38.07 15.28 38.07Z" stroke="url(#paint_linear_5_185_0)" stroke-opacity="1.000000" stroke-width="3.571430"/>
		<path id="Vector" d="M0 30.71C0 30.83 0 30.95 0 31.07C0 44.28 10.71 55 23.92 55C37.14 55 47.85 44.28 47.85 31.07C47.85 30.95 47.85 30.83 47.85 30.71L0 30.71Z" fill="url(#paint_linear_5_186_0)" fill-opacity="1.000000" fill-rule="nonzero"/>
		<path id="Vector" d="M35.64 24.5C33.27 24.5 31.35 22.58 31.35 20.21C31.35 17.84 33.27 15.92 35.64 15.92C38 15.92 39.92 17.84 39.92 20.21C39.92 22.58 38 24.5 35.64 24.5Z" stroke="#EAA427" stroke-opacity="1.000000" stroke-width="2.142860"/>
		<path id="Vector" d="M27.78 10.21C25.41 10.21 23.5 8.29 23.5 5.92C23.5 3.56 25.41 1.64 27.78 1.64C30.15 1.64 32.07 3.56 32.07 5.92C32.07 8.29 30.15 10.21 27.78 10.21Z" stroke="#EA7727" stroke-opacity="1.000000" stroke-width="2.142860"/>
	</g>
</svg>
