<svg width="197.000000" height="55.000000" viewBox="0 0 197 55" fill="none" xmlns="http://www.w3.org/2000/svg" xmlns:xlink="http://www.w3.org/1999/xlink">
	<desc>
			Created with Pixso.
	</desc>
	<defs>
		<linearGradient id="paint_linear_5_185_0" x1="7.428591" y1="19.214386" x2="22.428579" y2="36.714390" gradientUnits="userSpaceOnUse">
			<stop stop-color="#EA6D27"/>
			<stop offset="1.000000" stop-color="#EAA827"/>
		</linearGradient>
		<linearGradient id="paint_linear_5_186_0" x1="6.428568" y1="29.714407" x2="35.000000" y2="45.428612" gradientUnits="userSpaceOnUse">
			<stop stop-color="#FF9400"/>
			<stop offset="1.000000" stop-color="#EA6D27"/>
		</linearGradient>
	</defs>
	<path id="Vector" d="M60.48 46L60.48 31.27L64.44 31.27L64.44 33.84L64.6 33.84C64.86 32.92 65.31 32.23 65.95 31.77C66.58 31.29 67.31 31.06 68.13 31.06C68.34 31.06 68.56 31.07 68.8 31.1C69.03 31.12 69.24 31.16 69.42 31.2L69.42 34.83C69.23 34.77 68.96 34.72 68.62 34.67C68.28 34.63 67.97 34.6 67.69 34.6C67.09 34.6 66.55 34.74 66.08 35C65.61 35.25 65.24 35.61 64.97 36.07C64.7 36.53 64.57 37.06 64.57 37.66L64.57 46L60.48 46ZM77.56 46.28C76.04 46.28 74.74 45.98 73.64 45.36C72.56 44.74 71.72 43.87 71.13 42.74C70.54 41.6 70.25 40.25 70.25 38.7C70.25 37.18 70.54 35.85 71.13 34.71C71.72 33.57 72.55 32.67 73.62 32.03C74.69 31.4 75.95 31.08 77.39 31.08C78.36 31.08 79.27 31.23 80.11 31.55C80.95 31.85 81.69 32.32 82.31 32.94C82.94 33.56 83.44 34.34 83.79 35.28C84.14 36.21 84.32 37.3 84.32 38.55L84.32 39.68L71.88 39.68L71.88 37.15L80.47 37.15C80.47 36.56 80.34 36.04 80.09 35.58C79.83 35.13 79.48 34.77 79.02 34.52C78.58 34.26 78.05 34.13 77.46 34.13C76.84 34.13 76.29 34.27 75.81 34.56C75.34 34.84 74.97 35.22 74.7 35.7C74.43 36.17 74.29 36.7 74.29 37.28L74.29 39.69C74.29 40.41 74.42 41.04 74.69 41.58C74.96 42.11 75.35 42.51 75.85 42.8C76.35 43.09 76.94 43.23 77.62 43.23C78.08 43.23 78.49 43.17 78.87 43.04C79.25 42.91 79.57 42.72 79.84 42.47C80.11 42.21 80.31 41.9 80.45 41.53L84.23 41.78C84.04 42.68 83.64 43.48 83.05 44.15C82.46 44.83 81.7 45.35 80.77 45.73C79.84 46.1 78.77 46.28 77.56 46.28ZM99.23 35.47L95.5 35.7C95.43 35.38 95.29 35.09 95.08 34.83C94.87 34.57 94.59 34.36 94.25 34.21C93.91 34.05 93.5 33.97 93.03 33.97C92.4 33.97 91.86 34.11 91.43 34.37C91 34.64 90.78 34.99 90.78 35.43C90.78 35.78 90.92 36.08 91.2 36.32C91.48 36.56 91.96 36.76 92.65 36.91L95.31 37.44C96.74 37.74 97.81 38.21 98.52 38.86C99.22 39.51 99.57 40.37 99.57 41.43C99.57 42.4 99.29 43.24 98.72 43.97C98.15 44.7 97.38 45.27 96.4 45.68C95.42 46.08 94.29 46.28 93.01 46.28C91.06 46.28 89.51 45.88 88.35 45.07C87.2 44.25 86.53 43.13 86.33 41.73L90.35 41.52C90.47 42.11 90.76 42.57 91.23 42.88C91.7 43.19 92.29 43.34 93.02 43.34C93.74 43.34 94.31 43.2 94.75 42.93C95.19 42.65 95.41 42.28 95.42 41.84C95.41 41.47 95.26 41.17 94.95 40.93C94.64 40.69 94.17 40.5 93.53 40.38L90.98 39.87C89.54 39.58 88.47 39.08 87.77 38.37C87.07 37.66 86.72 36.76 86.72 35.66C86.72 34.71 86.98 33.9 87.49 33.21C88.01 32.53 88.73 32 89.67 31.63C90.61 31.26 91.7 31.08 92.96 31.08C94.82 31.08 96.29 31.47 97.36 32.26C98.43 33.04 99.06 34.11 99.23 35.47ZM109.98 31.27L109.98 34.34L101.11 34.34L101.11 31.27L109.98 31.27ZM103.12 27.74L107.21 27.74L107.21 41.47C107.21 41.85 107.26 42.14 107.38 42.35C107.49 42.56 107.65 42.7 107.86 42.78C108.07 42.87 108.31 42.91 108.59 42.91C108.78 42.91 108.97 42.89 109.16 42.86C109.35 42.82 109.5 42.79 109.6 42.77L110.24 45.81C110.04 45.88 109.75 45.95 109.38 46.03C109.01 46.12 108.56 46.18 108.03 46.2C107.05 46.23 106.18 46.1 105.44 45.8C104.71 45.5 104.13 45.04 103.72 44.4C103.32 43.77 103.11 42.97 103.12 42.01L103.12 27.74ZM116.84 46.27C115.9 46.27 115.06 46.11 114.32 45.78C113.59 45.45 113.01 44.96 112.58 44.32C112.16 43.67 111.95 42.85 111.95 41.88C111.95 41.06 112.1 40.38 112.4 39.82C112.7 39.26 113.11 38.82 113.62 38.48C114.14 38.14 114.73 37.88 115.39 37.71C116.05 37.54 116.75 37.42 117.48 37.35C118.34 37.26 119.03 37.17 119.55 37.1C120.07 37.01 120.45 36.89 120.69 36.73C120.93 36.57 121.05 36.34 121.05 36.02L121.05 35.97C121.05 35.36 120.85 34.89 120.47 34.56C120.09 34.22 119.56 34.06 118.86 34.06C118.12 34.06 117.54 34.22 117.1 34.55C116.67 34.87 116.38 35.27 116.24 35.75L112.46 35.45C112.66 34.55 113.03 33.78 113.6 33.13C114.16 32.47 114.88 31.96 115.77 31.61C116.67 31.26 117.7 31.08 118.88 31.08C119.7 31.08 120.48 31.17 121.23 31.36C121.98 31.56 122.65 31.85 123.23 32.26C123.82 32.66 124.28 33.18 124.62 33.81C124.96 34.44 125.13 35.19 125.13 36.06L125.13 46L121.26 46L121.26 43.95L121.14 43.95C120.91 44.41 120.59 44.82 120.19 45.17C119.8 45.52 119.32 45.79 118.76 45.99C118.21 46.18 117.57 46.27 116.84 46.27ZM118.01 43.45C118.61 43.45 119.14 43.34 119.6 43.1C120.06 42.86 120.42 42.53 120.68 42.12C120.94 41.71 121.07 41.25 121.07 40.73L121.07 39.17C120.95 39.25 120.77 39.33 120.55 39.4C120.33 39.46 120.08 39.52 119.81 39.58C119.53 39.63 119.26 39.68 118.98 39.72C118.71 39.76 118.46 39.8 118.24 39.83C117.76 39.9 117.34 40.01 116.98 40.17C116.62 40.32 116.34 40.53 116.15 40.79C115.95 41.04 115.85 41.36 115.85 41.75C115.85 42.3 116.05 42.73 116.45 43.02C116.86 43.31 117.38 43.45 118.01 43.45ZM137.74 39.72L137.74 31.27L141.83 31.27L141.83 46L137.91 46L137.91 43.32L137.75 43.32C137.42 44.18 136.87 44.88 136.09 45.4C135.33 45.92 134.39 46.19 133.28 46.19C132.3 46.19 131.43 45.96 130.69 45.52C129.94 45.07 129.35 44.43 128.93 43.61C128.52 42.78 128.31 41.8 128.3 40.65L128.3 31.27L132.38 31.27L132.38 39.92C132.39 40.79 132.62 41.47 133.08 41.98C133.54 42.48 134.16 42.74 134.93 42.74C135.43 42.74 135.89 42.62 136.31 42.4C136.74 42.17 137.09 41.83 137.35 41.38C137.62 40.94 137.75 40.38 137.74 39.72ZM145.09 46L145.09 31.27L149.05 31.27L149.05 33.84L149.21 33.84C149.48 32.92 149.93 32.23 150.56 31.77C151.19 31.29 151.92 31.06 152.75 31.06C152.95 31.06 153.17 31.07 153.41 31.1C153.64 31.12 153.85 31.16 154.03 31.2L154.03 34.83C153.84 34.77 153.57 34.72 153.24 34.67C152.9 34.63 152.59 34.6 152.31 34.6C151.7 34.6 151.17 34.74 150.69 35C150.23 35.25 149.86 35.61 149.58 36.07C149.31 36.53 149.18 37.06 149.18 37.66L149.18 46L145.09 46ZM159.92 46.27C158.98 46.27 158.14 46.11 157.41 45.78C156.67 45.45 156.09 44.96 155.66 44.32C155.24 43.67 155.03 42.85 155.03 41.88C155.03 41.06 155.18 40.38 155.48 39.82C155.78 39.26 156.19 38.82 156.71 38.48C157.23 38.14 157.81 37.88 158.47 37.71C159.14 37.54 159.83 37.42 160.56 37.35C161.42 37.26 162.11 37.17 162.63 37.1C163.16 37.01 163.54 36.89 163.77 36.73C164.01 36.57 164.13 36.34 164.13 36.02L164.13 35.97C164.13 35.36 163.94 34.89 163.55 34.56C163.18 34.22 162.64 34.06 161.94 34.06C161.21 34.06 160.62 34.22 160.19 34.55C159.75 34.87 159.47 35.27 159.33 35.75L155.55 35.45C155.74 34.55 156.12 33.78 156.68 33.13C157.24 32.47 157.97 31.96 158.86 31.61C159.75 31.26 160.79 31.08 161.96 31.08C162.78 31.08 163.56 31.17 164.31 31.36C165.07 31.56 165.73 31.85 166.32 32.26C166.9 32.66 167.37 33.18 167.71 33.81C168.04 34.44 168.21 35.19 168.21 36.06L168.21 46L164.34 46L164.34 43.95L164.23 43.95C163.99 44.41 163.67 44.82 163.28 45.17C162.88 45.52 162.4 45.79 161.85 45.99C161.29 46.18 160.65 46.27 159.92 46.27ZM161.09 43.45C161.69 43.45 162.22 43.34 162.68 43.1C163.14 42.86 163.5 42.53 163.77 42.12C164.03 41.71 164.16 41.25 164.16 40.73L164.16 39.17C164.03 39.25 163.85 39.33 163.63 39.4C163.41 39.46 163.17 39.52 162.89 39.58C162.62 39.63 162.34 39.68 162.07 39.72C161.79 39.76 161.54 39.8 161.32 39.83C160.84 39.9 160.42 40.01 160.06 40.17C159.71 40.32 159.43 40.53 159.23 40.79C159.03 41.04 158.93 41.36 158.93 41.75C158.93 42.3 159.13 42.73 159.54 43.02C159.95 43.31 160.46 43.45 161.09 43.45ZM175.47 37.48L175.47 46L171.38 46L171.38 31.27L175.28 31.27L175.28 33.87L175.45 33.87C175.77 33.01 176.32 32.33 177.09 31.83C177.85 31.33 178.79 31.08 179.88 31.08C180.9 31.08 181.79 31.3 182.55 31.75C183.31 32.19 183.91 32.83 184.33 33.66C184.75 34.49 184.96 35.47 184.96 36.62L184.96 46L180.88 46L180.88 37.35C180.88 36.45 180.65 35.74 180.18 35.24C179.72 34.73 179.08 34.47 178.26 34.47C177.71 34.47 177.22 34.59 176.8 34.83C176.38 35.06 176.06 35.41 175.82 35.86C175.59 36.31 175.47 36.85 175.47 37.48ZM196.01 31.27L196.01 34.34L187.14 34.34L187.14 31.27L196.01 31.27ZM189.16 27.74L193.24 27.74L193.24 41.47C193.24 41.85 193.3 42.14 193.41 42.35C193.53 42.56 193.69 42.7 193.89 42.78C194.1 42.87 194.35 42.91 194.62 42.91C194.81 42.91 195.01 42.89 195.2 42.86C195.39 42.82 195.54 42.79 195.64 42.77L196.28 45.81C196.08 45.88 195.79 45.95 195.42 46.03C195.05 46.12 194.6 46.18 194.07 46.2C193.08 46.23 192.22 46.1 191.48 45.8C190.74 45.5 190.17 45.04 189.76 44.4C189.35 43.77 189.15 42.97 189.16 42.01L189.16 27.74Z" fill="#101A24" fill-opacity="1.000000" fill-rule="nonzero"/>
	<path id="Vector" d="M15.28 37.07C9.96 37.07 5.64 32.75 5.64 27.42C5.64 22.1 9.96 17.78 15.28 17.78C20.61 17.78 24.92 22.1 24.92 27.42C24.92 32.75 20.61 37.07 15.28 37.07Z" stroke="url(#paint_linear_5_185_0)" stroke-opacity="1.000000" stroke-width="3.571430"/>
	<path id="Vector" d="M0 29.71C0 29.83 0 29.95 0 30.07C0 43.28 10.71 54 23.92 54C37.14 54 47.85 43.28 47.85 30.07C47.85 29.95 47.85 29.83 47.85 29.71L0 29.71Z" fill="url(#paint_linear_5_186_0)" fill-opacity="1.000000" fill-rule="nonzero"/>
	<path id="Vector" d="M35.64 23.5C33.27 23.5 31.35 21.58 31.35 19.21C31.35 16.84 33.27 14.92 35.64 14.92C38 14.92 39.92 16.84 39.92 19.21C39.92 21.58 38 23.5 35.64 23.5Z" stroke="#EAA427" stroke-opacity="1.000000" stroke-width="2.142860"/>
	<path id="Vector" d="M27.78 9.21C25.41 9.21 23.5 7.29 23.5 4.92C23.5 2.56 25.41 0.64 27.78 0.64C30.15 0.64 32.07 2.56 32.07 4.92C32.07 7.29 30.15 9.21 27.78 9.21Z" stroke="#EA7727" stroke-opacity="1.000000" stroke-width="2.142860"/>
</svg>
